<mxfile host="app.diagrams.net" modified="2023-06-12T14:26:36.472Z" agent="Mozilla/5.0 (Windows NT 10.0; Win64; x64) AppleWebKit/537.36 (KHTML, like Gecko) Chrome/112.0.0.0 YaBrowser/23.5.1.721 Yowser/2.5 Safari/537.36" etag="DJPYW0V6sGRevw0jh_y1" version="21.3.7" type="device" pages="2">
  <diagram name="Вид деятельность_1" id="Oy_NeFyH1lFz9TOqbWhq">
    <mxGraphModel dx="944" dy="419" grid="1" gridSize="10" guides="1" tooltips="1" connect="1" arrows="1" fold="1" page="1" pageScale="1" pageWidth="2339" pageHeight="3300" math="0" shadow="0">
      <root>
        <mxCell id="0" />
        <mxCell id="1" parent="0" />
        <mxCell id="vK2o67Jvmaya_6aXU9-6-1" value="ad отправка и дальнейшая обработка резюме" style="shape=umlFrame;whiteSpace=wrap;html=1;pointerEvents=0;width=360;height=30;" parent="1" vertex="1">
          <mxGeometry x="130" y="40" width="930" height="400" as="geometry" />
        </mxCell>
        <mxCell id="vK2o67Jvmaya_6aXU9-6-2" value="&lt;font style=&quot;font-size: 10px;&quot;&gt;Рекрутер&lt;/font&gt;" style="swimlane;horizontal=0;whiteSpace=wrap;html=1;" parent="1" vertex="1">
          <mxGeometry x="180" y="80" width="820" height="160" as="geometry" />
        </mxCell>
        <mxCell id="vK2o67Jvmaya_6aXU9-6-9" value="&lt;font style=&quot;font-size: 10px;&quot;&gt;Просмотр резюме&lt;/font&gt;" style="rounded=1;whiteSpace=wrap;html=1;" parent="vK2o67Jvmaya_6aXU9-6-2" vertex="1">
          <mxGeometry x="60" y="40" width="80" height="40" as="geometry" />
        </mxCell>
        <mxCell id="vK2o67Jvmaya_6aXU9-6-14" value="" style="endArrow=open;endFill=1;endSize=12;html=1;rounded=0;exitX=1;exitY=0.5;exitDx=0;exitDy=0;entryX=0;entryY=0.5;entryDx=0;entryDy=0;" parent="vK2o67Jvmaya_6aXU9-6-2" source="vK2o67Jvmaya_6aXU9-6-9" target="vK2o67Jvmaya_6aXU9-6-17" edge="1">
          <mxGeometry width="160" relative="1" as="geometry">
            <mxPoint x="105" y="150" as="sourcePoint" />
            <mxPoint x="170" y="40" as="targetPoint" />
          </mxGeometry>
        </mxCell>
        <mxCell id="vK2o67Jvmaya_6aXU9-6-17" value="&lt;font style=&quot;font-size: 10px;&quot;&gt;Подходит под требования&amp;nbsp;&lt;/font&gt;" style="rhombus;whiteSpace=wrap;html=1;" parent="vK2o67Jvmaya_6aXU9-6-2" vertex="1">
          <mxGeometry x="170" y="20" width="90" height="80" as="geometry" />
        </mxCell>
        <mxCell id="vK2o67Jvmaya_6aXU9-6-20" value="&lt;font style=&quot;font-size: 10px;&quot;&gt;Добавить резюме на конкурс&lt;/font&gt;" style="rounded=1;whiteSpace=wrap;html=1;" parent="vK2o67Jvmaya_6aXU9-6-2" vertex="1">
          <mxGeometry x="360" y="40" width="90" height="40" as="geometry" />
        </mxCell>
        <mxCell id="vK2o67Jvmaya_6aXU9-6-22" value="&lt;font style=&quot;font-size: 10px;&quot;&gt;[Да]&lt;/font&gt;" style="text;html=1;strokeColor=none;fillColor=none;align=center;verticalAlign=middle;whiteSpace=wrap;rounded=0;" parent="vK2o67Jvmaya_6aXU9-6-2" vertex="1">
          <mxGeometry x="250" y="40" width="50" height="20" as="geometry" />
        </mxCell>
        <mxCell id="vK2o67Jvmaya_6aXU9-6-23" value="" style="html=1;points=[];perimeter=orthogonalPerimeter;outlineConnect=0;targetShapes=umlLifeline;portConstraint=eastwest;newEdgeStyle={&quot;edgeStyle&quot;:&quot;elbowEdgeStyle&quot;,&quot;elbow&quot;:&quot;vertical&quot;,&quot;curved&quot;:0,&quot;rounded&quot;:0};fillColor=#000000;" parent="vK2o67Jvmaya_6aXU9-6-2" vertex="1">
          <mxGeometry x="310" y="30" width="10" height="60" as="geometry" />
        </mxCell>
        <mxCell id="vK2o67Jvmaya_6aXU9-6-24" value="" style="endArrow=open;endFill=1;endSize=12;html=1;rounded=0;exitX=1;exitY=0.5;exitDx=0;exitDy=0;" parent="vK2o67Jvmaya_6aXU9-6-2" source="vK2o67Jvmaya_6aXU9-6-17" target="vK2o67Jvmaya_6aXU9-6-23" edge="1">
          <mxGeometry width="160" relative="1" as="geometry">
            <mxPoint x="150" y="80" as="sourcePoint" />
            <mxPoint x="180" y="80" as="targetPoint" />
          </mxGeometry>
        </mxCell>
        <mxCell id="vK2o67Jvmaya_6aXU9-6-26" value="" style="endArrow=open;endFill=1;endSize=12;html=1;rounded=0;entryX=0;entryY=0.5;entryDx=0;entryDy=0;" parent="vK2o67Jvmaya_6aXU9-6-2" source="vK2o67Jvmaya_6aXU9-6-23" target="vK2o67Jvmaya_6aXU9-6-20" edge="1">
          <mxGeometry width="160" relative="1" as="geometry">
            <mxPoint x="300" y="110" as="sourcePoint" />
            <mxPoint x="460" y="110" as="targetPoint" />
            <Array as="points">
              <mxPoint x="340" y="60" />
            </Array>
          </mxGeometry>
        </mxCell>
        <mxCell id="vK2o67Jvmaya_6aXU9-6-27" value="&lt;font style=&quot;font-size: 10px;&quot;&gt;Послать соответствующие сообщение соискателю&lt;/font&gt;" style="rounded=1;whiteSpace=wrap;html=1;" parent="vK2o67Jvmaya_6aXU9-6-2" vertex="1">
          <mxGeometry x="255" y="110" width="140" height="40" as="geometry" />
        </mxCell>
        <mxCell id="vK2o67Jvmaya_6aXU9-6-28" value="" style="endArrow=open;endFill=1;endSize=12;html=1;rounded=0;exitX=0.5;exitY=1;exitDx=0;exitDy=0;entryX=0;entryY=0.5;entryDx=0;entryDy=0;" parent="vK2o67Jvmaya_6aXU9-6-2" source="vK2o67Jvmaya_6aXU9-6-17" target="vK2o67Jvmaya_6aXU9-6-27" edge="1">
          <mxGeometry width="160" relative="1" as="geometry">
            <mxPoint x="300" y="170" as="sourcePoint" />
            <mxPoint x="460" y="170" as="targetPoint" />
            <Array as="points">
              <mxPoint x="215" y="130" />
            </Array>
          </mxGeometry>
        </mxCell>
        <mxCell id="vK2o67Jvmaya_6aXU9-6-29" value="&lt;font style=&quot;font-size: 10px;&quot;&gt;[Нет]&lt;/font&gt;" style="text;html=1;strokeColor=none;fillColor=none;align=center;verticalAlign=middle;whiteSpace=wrap;rounded=0;" parent="vK2o67Jvmaya_6aXU9-6-2" vertex="1">
          <mxGeometry x="170" y="100" width="60" height="30" as="geometry" />
        </mxCell>
        <mxCell id="vK2o67Jvmaya_6aXU9-6-31" value="&lt;span style=&quot;font-size: 10px;&quot;&gt;Установить оценку&lt;/span&gt;" style="rounded=1;whiteSpace=wrap;html=1;" parent="vK2o67Jvmaya_6aXU9-6-2" vertex="1">
          <mxGeometry x="490" y="20" width="90" height="40" as="geometry" />
        </mxCell>
        <mxCell id="vK2o67Jvmaya_6aXU9-6-32" value="" style="endArrow=open;endFill=1;endSize=12;html=1;rounded=0;entryX=0.25;entryY=0;entryDx=0;entryDy=0;" parent="vK2o67Jvmaya_6aXU9-6-2" target="vK2o67Jvmaya_6aXU9-6-27" edge="1">
          <mxGeometry width="160" relative="1" as="geometry">
            <mxPoint x="310" y="60" as="sourcePoint" />
            <mxPoint x="460" y="180" as="targetPoint" />
          </mxGeometry>
        </mxCell>
        <mxCell id="vK2o67Jvmaya_6aXU9-6-36" value="&lt;font style=&quot;font-size: 10px;&quot;&gt;Получить ответное сообщение&lt;/font&gt;" style="rounded=1;whiteSpace=wrap;html=1;" parent="vK2o67Jvmaya_6aXU9-6-2" vertex="1">
          <mxGeometry x="450" y="110" width="100" height="40" as="geometry" />
        </mxCell>
        <mxCell id="vK2o67Jvmaya_6aXU9-6-30" value="" style="endArrow=open;endFill=1;endSize=12;html=1;rounded=0;exitX=1;exitY=0.5;exitDx=0;exitDy=0;entryX=0;entryY=0.5;entryDx=0;entryDy=0;" parent="vK2o67Jvmaya_6aXU9-6-2" source="vK2o67Jvmaya_6aXU9-6-20" target="vK2o67Jvmaya_6aXU9-6-31" edge="1">
          <mxGeometry width="160" relative="1" as="geometry">
            <mxPoint x="300" y="170" as="sourcePoint" />
            <mxPoint x="490" y="60" as="targetPoint" />
            <Array as="points">
              <mxPoint x="460" y="40" />
            </Array>
          </mxGeometry>
        </mxCell>
        <mxCell id="vK2o67Jvmaya_6aXU9-6-39" value="" style="ellipse;whiteSpace=wrap;html=1;aspect=fixed;fillColor=#000000;" parent="vK2o67Jvmaya_6aXU9-6-2" vertex="1">
          <mxGeometry x="780" y="45" width="30" height="30" as="geometry" />
        </mxCell>
        <mxCell id="vK2o67Jvmaya_6aXU9-6-41" value="&lt;span style=&quot;font-size: 10px;&quot;&gt;Закончить обработку резюме&lt;/span&gt;" style="rounded=1;whiteSpace=wrap;html=1;arcSize=36;" parent="vK2o67Jvmaya_6aXU9-6-2" vertex="1">
          <mxGeometry x="650" y="40" width="90" height="40" as="geometry" />
        </mxCell>
        <mxCell id="vK2o67Jvmaya_6aXU9-6-44" value="" style="endArrow=open;endFill=1;endSize=12;html=1;rounded=0;exitX=1;exitY=0.5;exitDx=0;exitDy=0;entryX=0;entryY=0.5;entryDx=0;entryDy=0;" parent="vK2o67Jvmaya_6aXU9-6-2" source="vK2o67Jvmaya_6aXU9-6-41" target="vK2o67Jvmaya_6aXU9-6-39" edge="1">
          <mxGeometry width="160" relative="1" as="geometry">
            <mxPoint x="280" y="90" as="sourcePoint" />
            <mxPoint x="440" y="90" as="targetPoint" />
          </mxGeometry>
        </mxCell>
        <mxCell id="vK2o67Jvmaya_6aXU9-6-45" value="" style="html=1;points=[];perimeter=orthogonalPerimeter;outlineConnect=0;targetShapes=umlLifeline;portConstraint=eastwest;newEdgeStyle={&quot;edgeStyle&quot;:&quot;elbowEdgeStyle&quot;,&quot;elbow&quot;:&quot;vertical&quot;,&quot;curved&quot;:0,&quot;rounded&quot;:0};fillColor=#000000;" parent="vK2o67Jvmaya_6aXU9-6-2" vertex="1">
          <mxGeometry x="610" y="30" width="10" height="60" as="geometry" />
        </mxCell>
        <mxCell id="vK2o67Jvmaya_6aXU9-6-46" value="" style="endArrow=open;endFill=1;endSize=12;html=1;rounded=0;exitX=1;exitY=0.5;exitDx=0;exitDy=0;" parent="vK2o67Jvmaya_6aXU9-6-2" source="vK2o67Jvmaya_6aXU9-6-31" target="vK2o67Jvmaya_6aXU9-6-45" edge="1">
          <mxGeometry width="160" relative="1" as="geometry">
            <mxPoint x="460" y="70" as="sourcePoint" />
            <mxPoint x="500" y="70" as="targetPoint" />
            <Array as="points">
              <mxPoint x="590" y="40" />
              <mxPoint x="590" y="60" />
            </Array>
          </mxGeometry>
        </mxCell>
        <mxCell id="vK2o67Jvmaya_6aXU9-6-47" value="" style="endArrow=open;endFill=1;endSize=12;html=1;rounded=0;entryX=0;entryY=0.5;entryDx=0;entryDy=0;" parent="vK2o67Jvmaya_6aXU9-6-2" source="vK2o67Jvmaya_6aXU9-6-45" target="vK2o67Jvmaya_6aXU9-6-41" edge="1">
          <mxGeometry width="160" relative="1" as="geometry">
            <mxPoint x="470" y="80" as="sourcePoint" />
            <mxPoint x="510" y="80" as="targetPoint" />
          </mxGeometry>
        </mxCell>
        <mxCell id="vK2o67Jvmaya_6aXU9-6-48" value="" style="endArrow=open;endFill=1;endSize=12;html=1;rounded=0;exitX=0.5;exitY=0;exitDx=0;exitDy=0;" parent="vK2o67Jvmaya_6aXU9-6-2" source="vK2o67Jvmaya_6aXU9-6-36" edge="1">
          <mxGeometry width="160" relative="1" as="geometry">
            <mxPoint x="410" y="120" as="sourcePoint" />
            <mxPoint x="610" y="60" as="targetPoint" />
          </mxGeometry>
        </mxCell>
        <mxCell id="vK2o67Jvmaya_6aXU9-6-3" value="&lt;font style=&quot;font-size: 10px;&quot;&gt;Соискатель&lt;/font&gt;" style="swimlane;horizontal=0;whiteSpace=wrap;html=1;" parent="1" vertex="1">
          <mxGeometry x="180" y="240" width="820" height="160" as="geometry" />
        </mxCell>
        <mxCell id="vK2o67Jvmaya_6aXU9-6-5" value="" style="ellipse;whiteSpace=wrap;html=1;aspect=fixed;fillColor=#000000;" parent="vK2o67Jvmaya_6aXU9-6-3" vertex="1">
          <mxGeometry x="80" y="120" width="30" height="30" as="geometry" />
        </mxCell>
        <mxCell id="vK2o67Jvmaya_6aXU9-6-11" value="&lt;font style=&quot;font-size: 10px;&quot;&gt;Заполнение бланка резюме&lt;/font&gt;" style="rounded=1;whiteSpace=wrap;html=1;" parent="vK2o67Jvmaya_6aXU9-6-3" vertex="1">
          <mxGeometry x="55" y="50" width="80" height="40" as="geometry" />
        </mxCell>
        <mxCell id="vK2o67Jvmaya_6aXU9-6-15" value="&lt;font style=&quot;font-size: 10px;&quot;&gt;Отправка резюме&lt;/font&gt;" style="rounded=1;whiteSpace=wrap;html=1;" parent="vK2o67Jvmaya_6aXU9-6-3" vertex="1">
          <mxGeometry x="170" y="50" width="80" height="40" as="geometry" />
        </mxCell>
        <mxCell id="vK2o67Jvmaya_6aXU9-6-16" value="" style="endArrow=open;endFill=1;endSize=12;html=1;rounded=0;exitX=1;exitY=0.5;exitDx=0;exitDy=0;entryX=0;entryY=0.5;entryDx=0;entryDy=0;" parent="vK2o67Jvmaya_6aXU9-6-3" source="vK2o67Jvmaya_6aXU9-6-11" target="vK2o67Jvmaya_6aXU9-6-15" edge="1">
          <mxGeometry width="160" relative="1" as="geometry">
            <mxPoint x="105" y="30" as="sourcePoint" />
            <mxPoint x="105" y="-50" as="targetPoint" />
          </mxGeometry>
        </mxCell>
        <mxCell id="vK2o67Jvmaya_6aXU9-6-6" value="" style="endArrow=open;endFill=1;endSize=12;html=1;rounded=0;exitX=0.5;exitY=0;exitDx=0;exitDy=0;entryX=0.5;entryY=1;entryDx=0;entryDy=0;" parent="vK2o67Jvmaya_6aXU9-6-3" source="vK2o67Jvmaya_6aXU9-6-5" target="vK2o67Jvmaya_6aXU9-6-11" edge="1">
          <mxGeometry width="160" relative="1" as="geometry">
            <mxPoint x="260" y="-20" as="sourcePoint" />
            <mxPoint x="95" y="100" as="targetPoint" />
          </mxGeometry>
        </mxCell>
        <mxCell id="vK2o67Jvmaya_6aXU9-6-33" value="&lt;font style=&quot;font-size: 10px;&quot;&gt;Получить сообщение&lt;/font&gt;" style="rounded=1;whiteSpace=wrap;html=1;" parent="vK2o67Jvmaya_6aXU9-6-3" vertex="1">
          <mxGeometry x="280" y="50" width="90" height="40" as="geometry" />
        </mxCell>
        <mxCell id="vK2o67Jvmaya_6aXU9-6-35" value="&lt;font style=&quot;font-size: 10px;&quot;&gt;Ответить на сообщение&lt;/font&gt;" style="rounded=1;whiteSpace=wrap;html=1;" parent="vK2o67Jvmaya_6aXU9-6-3" vertex="1">
          <mxGeometry x="400" y="50" width="90" height="40" as="geometry" />
        </mxCell>
        <mxCell id="vK2o67Jvmaya_6aXU9-6-37" value="" style="endArrow=open;endFill=1;endSize=12;html=1;rounded=0;exitX=1;exitY=0.5;exitDx=0;exitDy=0;entryX=0;entryY=0.5;entryDx=0;entryDy=0;" parent="vK2o67Jvmaya_6aXU9-6-3" source="vK2o67Jvmaya_6aXU9-6-33" target="vK2o67Jvmaya_6aXU9-6-35" edge="1">
          <mxGeometry width="160" relative="1" as="geometry">
            <mxPoint x="300" y="-30" as="sourcePoint" />
            <mxPoint x="460" y="-30" as="targetPoint" />
          </mxGeometry>
        </mxCell>
        <mxCell id="vK2o67Jvmaya_6aXU9-6-4" value="Резюме" style="rounded=0;whiteSpace=wrap;html=1;" parent="1" vertex="1">
          <mxGeometry x="90" y="410" width="120" height="60" as="geometry" />
        </mxCell>
        <mxCell id="vK2o67Jvmaya_6aXU9-6-12" value="" style="endArrow=open;endFill=1;endSize=12;html=1;rounded=0;exitX=0.5;exitY=0;exitDx=0;exitDy=0;entryX=0.5;entryY=1;entryDx=0;entryDy=0;" parent="1" source="vK2o67Jvmaya_6aXU9-6-15" target="vK2o67Jvmaya_6aXU9-6-9" edge="1">
          <mxGeometry width="160" relative="1" as="geometry">
            <mxPoint x="275" y="220" as="sourcePoint" />
            <mxPoint x="360" y="220" as="targetPoint" />
          </mxGeometry>
        </mxCell>
        <mxCell id="vK2o67Jvmaya_6aXU9-6-13" value="" style="endArrow=open;endFill=1;endSize=12;html=1;rounded=0;exitX=0.5;exitY=0;exitDx=0;exitDy=0;entryX=0;entryY=0.5;entryDx=0;entryDy=0;" parent="1" source="vK2o67Jvmaya_6aXU9-6-4" target="vK2o67Jvmaya_6aXU9-6-11" edge="1">
          <mxGeometry width="160" relative="1" as="geometry">
            <mxPoint x="440" y="210" as="sourcePoint" />
            <mxPoint x="235" y="240" as="targetPoint" />
          </mxGeometry>
        </mxCell>
        <mxCell id="vK2o67Jvmaya_6aXU9-6-34" value="" style="endArrow=open;endFill=1;endSize=12;html=1;rounded=0;exitX=0.5;exitY=1;exitDx=0;exitDy=0;entryX=0.5;entryY=0;entryDx=0;entryDy=0;" parent="1" source="vK2o67Jvmaya_6aXU9-6-27" target="vK2o67Jvmaya_6aXU9-6-33" edge="1">
          <mxGeometry width="160" relative="1" as="geometry">
            <mxPoint x="480" y="290" as="sourcePoint" />
            <mxPoint x="640" y="290" as="targetPoint" />
          </mxGeometry>
        </mxCell>
        <mxCell id="vK2o67Jvmaya_6aXU9-6-38" value="" style="endArrow=open;endFill=1;endSize=12;html=1;rounded=0;exitX=0.5;exitY=0;exitDx=0;exitDy=0;entryX=0.5;entryY=1;entryDx=0;entryDy=0;" parent="1" source="vK2o67Jvmaya_6aXU9-6-35" target="vK2o67Jvmaya_6aXU9-6-36" edge="1">
          <mxGeometry width="160" relative="1" as="geometry">
            <mxPoint x="480" y="190" as="sourcePoint" />
            <mxPoint x="640" y="190" as="targetPoint" />
          </mxGeometry>
        </mxCell>
      </root>
    </mxGraphModel>
  </diagram>
  <diagram id="kV_xju2Oosapq3LkYZ8U" name="Вид детельности_2">
    <mxGraphModel dx="944" dy="419" grid="1" gridSize="10" guides="1" tooltips="1" connect="1" arrows="1" fold="1" page="1" pageScale="1" pageWidth="2339" pageHeight="3300" math="0" shadow="0">
      <root>
        <mxCell id="0" />
        <mxCell id="1" parent="0" />
        <mxCell id="K2C3XxSp3QnoKXtKQfDV-1" value="ad обработка заявки на подбор" style="shape=umlFrame;whiteSpace=wrap;html=1;pointerEvents=0;width=360;height=30;" parent="1" vertex="1">
          <mxGeometry x="130" y="40" width="930" height="540" as="geometry" />
        </mxCell>
        <mxCell id="K2C3XxSp3QnoKXtKQfDV-2" value="&lt;font style=&quot;font-size: 10px;&quot;&gt;Руководитель подразделения&lt;br&gt;&lt;/font&gt;" style="swimlane;horizontal=0;whiteSpace=wrap;html=1;" parent="1" vertex="1">
          <mxGeometry x="180" y="80" width="820" height="160" as="geometry" />
        </mxCell>
        <mxCell id="K2C3XxSp3QnoKXtKQfDV-18" value="" style="ellipse;whiteSpace=wrap;html=1;aspect=fixed;fillColor=#000000;" parent="K2C3XxSp3QnoKXtKQfDV-2" vertex="1">
          <mxGeometry x="70" y="10" width="30" height="30" as="geometry" />
        </mxCell>
        <mxCell id="C09CPUO8UzI7iRbQC0P2-3" value="&lt;font style=&quot;font-size: 10px;&quot;&gt;Создать заявку&lt;/font&gt;" style="rounded=1;whiteSpace=wrap;html=1;" parent="K2C3XxSp3QnoKXtKQfDV-2" vertex="1">
          <mxGeometry x="40" y="80" width="90" height="40" as="geometry" />
        </mxCell>
        <mxCell id="C09CPUO8UzI7iRbQC0P2-4" value="" style="endArrow=open;endFill=1;endSize=12;html=1;rounded=0;exitX=0.5;exitY=1;exitDx=0;exitDy=0;entryX=0.5;entryY=0;entryDx=0;entryDy=0;" parent="K2C3XxSp3QnoKXtKQfDV-2" source="K2C3XxSp3QnoKXtKQfDV-18" target="C09CPUO8UzI7iRbQC0P2-3" edge="1">
          <mxGeometry width="160" relative="1" as="geometry">
            <mxPoint x="100" y="90" as="sourcePoint" />
            <mxPoint x="260" y="90" as="targetPoint" />
          </mxGeometry>
        </mxCell>
        <mxCell id="OUfKYgwfs4-Y2U7x0Bgi-1" value="&lt;font style=&quot;font-size: 10px;&quot;&gt;Заполнить бланк заявки&lt;/font&gt;" style="rounded=1;whiteSpace=wrap;html=1;" parent="K2C3XxSp3QnoKXtKQfDV-2" vertex="1">
          <mxGeometry x="170" y="80" width="90" height="40" as="geometry" />
        </mxCell>
        <mxCell id="OUfKYgwfs4-Y2U7x0Bgi-3" value="&lt;font style=&quot;font-size: 10px;&quot;&gt;Отправка бланка директору&lt;/font&gt;" style="rounded=1;whiteSpace=wrap;html=1;" parent="K2C3XxSp3QnoKXtKQfDV-2" vertex="1">
          <mxGeometry x="300" y="80" width="90" height="40" as="geometry" />
        </mxCell>
        <mxCell id="OUfKYgwfs4-Y2U7x0Bgi-4" value="" style="endArrow=open;endFill=1;endSize=12;html=1;rounded=0;exitX=1;exitY=0.5;exitDx=0;exitDy=0;entryX=0;entryY=0.5;entryDx=0;entryDy=0;" parent="K2C3XxSp3QnoKXtKQfDV-2" source="OUfKYgwfs4-Y2U7x0Bgi-1" target="OUfKYgwfs4-Y2U7x0Bgi-3" edge="1">
          <mxGeometry width="160" relative="1" as="geometry">
            <mxPoint x="140" y="90" as="sourcePoint" />
            <mxPoint x="180" y="90" as="targetPoint" />
          </mxGeometry>
        </mxCell>
        <mxCell id="OUfKYgwfs4-Y2U7x0Bgi-2" value="" style="endArrow=open;endFill=1;endSize=12;html=1;rounded=0;exitX=1;exitY=0.5;exitDx=0;exitDy=0;entryX=0;entryY=0.5;entryDx=0;entryDy=0;" parent="K2C3XxSp3QnoKXtKQfDV-2" source="C09CPUO8UzI7iRbQC0P2-3" target="OUfKYgwfs4-Y2U7x0Bgi-1" edge="1">
          <mxGeometry width="160" relative="1" as="geometry">
            <mxPoint x="230" y="80" as="sourcePoint" />
            <mxPoint x="170" y="80" as="targetPoint" />
          </mxGeometry>
        </mxCell>
        <mxCell id="iYgbIxrdgANhLYbudfJi-5" value="&lt;span style=&quot;font-size: 10px;&quot;&gt;Получение сообщения&lt;/span&gt;" style="rounded=1;whiteSpace=wrap;html=1;" parent="K2C3XxSp3QnoKXtKQfDV-2" vertex="1">
          <mxGeometry x="540" y="90" width="90" height="40" as="geometry" />
        </mxCell>
        <mxCell id="iYgbIxrdgANhLYbudfJi-18" value="&lt;font style=&quot;font-size: 10px;&quot;&gt;Исправление бланка заявки&lt;/font&gt;" style="rounded=1;whiteSpace=wrap;html=1;" parent="K2C3XxSp3QnoKXtKQfDV-2" vertex="1">
          <mxGeometry x="400" y="20" width="90" height="40" as="geometry" />
        </mxCell>
        <mxCell id="iYgbIxrdgANhLYbudfJi-7" value="" style="endArrow=open;endFill=1;endSize=12;html=1;rounded=0;exitX=0.5;exitY=0;exitDx=0;exitDy=0;entryX=1;entryY=0.5;entryDx=0;entryDy=0;" parent="K2C3XxSp3QnoKXtKQfDV-2" source="iYgbIxrdgANhLYbudfJi-5" target="iYgbIxrdgANhLYbudfJi-18" edge="1">
          <mxGeometry width="160" relative="1" as="geometry">
            <mxPoint x="320" y="90" as="sourcePoint" />
            <mxPoint x="585" y="30" as="targetPoint" />
            <Array as="points">
              <mxPoint x="585" y="40" />
            </Array>
          </mxGeometry>
        </mxCell>
        <mxCell id="iYgbIxrdgANhLYbudfJi-20" value="" style="endArrow=open;endFill=1;endSize=12;html=1;rounded=0;exitX=0;exitY=0.5;exitDx=0;exitDy=0;entryX=0.75;entryY=0;entryDx=0;entryDy=0;" parent="K2C3XxSp3QnoKXtKQfDV-2" source="iYgbIxrdgANhLYbudfJi-18" target="C09CPUO8UzI7iRbQC0P2-3" edge="1">
          <mxGeometry width="160" relative="1" as="geometry">
            <mxPoint x="200" y="180" as="sourcePoint" />
            <mxPoint x="360" y="180" as="targetPoint" />
            <Array as="points">
              <mxPoint x="108" y="40" />
            </Array>
          </mxGeometry>
        </mxCell>
        <mxCell id="K2C3XxSp3QnoKXtKQfDV-25" value="&lt;font style=&quot;font-size: 10px;&quot;&gt;Директор&lt;/font&gt;" style="swimlane;horizontal=0;whiteSpace=wrap;html=1;" parent="1" vertex="1">
          <mxGeometry x="180" y="240" width="820" height="160" as="geometry" />
        </mxCell>
        <mxCell id="OUfKYgwfs4-Y2U7x0Bgi-6" value="&lt;font style=&quot;font-size: 10px;&quot;&gt;Принять заявку&lt;/font&gt;" style="rounded=1;whiteSpace=wrap;html=1;" parent="K2C3XxSp3QnoKXtKQfDV-25" vertex="1">
          <mxGeometry x="40" y="30" width="90" height="40" as="geometry" />
        </mxCell>
        <mxCell id="OUfKYgwfs4-Y2U7x0Bgi-7" value="&lt;font style=&quot;font-size: 10px;&quot;&gt;Заявка была визирована ?&lt;/font&gt;" style="rhombus;whiteSpace=wrap;html=1;" parent="K2C3XxSp3QnoKXtKQfDV-25" vertex="1">
          <mxGeometry x="320" y="56.25" width="90" height="87.5" as="geometry" />
        </mxCell>
        <mxCell id="OUfKYgwfs4-Y2U7x0Bgi-8" value="&lt;font style=&quot;font-size: 10px;&quot;&gt;Визировать заявку&lt;/font&gt;" style="rounded=1;whiteSpace=wrap;html=1;" parent="K2C3XxSp3QnoKXtKQfDV-25" vertex="1">
          <mxGeometry x="170" y="80" width="90" height="40" as="geometry" />
        </mxCell>
        <mxCell id="OUfKYgwfs4-Y2U7x0Bgi-10" value="" style="endArrow=open;endFill=1;endSize=12;html=1;rounded=0;exitX=1;exitY=0.5;exitDx=0;exitDy=0;entryX=0;entryY=0.5;entryDx=0;entryDy=0;" parent="K2C3XxSp3QnoKXtKQfDV-25" source="OUfKYgwfs4-Y2U7x0Bgi-6" target="OUfKYgwfs4-Y2U7x0Bgi-8" edge="1">
          <mxGeometry width="160" relative="1" as="geometry">
            <mxPoint x="230" y="10" as="sourcePoint" />
            <mxPoint x="390" y="10" as="targetPoint" />
            <Array as="points">
              <mxPoint x="150" y="50" />
              <mxPoint x="150" y="100" />
            </Array>
          </mxGeometry>
        </mxCell>
        <mxCell id="OUfKYgwfs4-Y2U7x0Bgi-11" value="" style="endArrow=open;endFill=1;endSize=12;html=1;rounded=0;exitX=1;exitY=0.5;exitDx=0;exitDy=0;entryX=0;entryY=0.5;entryDx=0;entryDy=0;" parent="K2C3XxSp3QnoKXtKQfDV-25" source="OUfKYgwfs4-Y2U7x0Bgi-8" target="OUfKYgwfs4-Y2U7x0Bgi-7" edge="1">
          <mxGeometry width="160" relative="1" as="geometry">
            <mxPoint x="230" y="10" as="sourcePoint" />
            <mxPoint x="390" y="10" as="targetPoint" />
          </mxGeometry>
        </mxCell>
        <mxCell id="OUfKYgwfs4-Y2U7x0Bgi-12" value="&lt;font style=&quot;font-size: 10px;&quot;&gt;Отправка заявку рекрутеру&lt;/font&gt;" style="rounded=1;whiteSpace=wrap;html=1;" parent="K2C3XxSp3QnoKXtKQfDV-25" vertex="1">
          <mxGeometry x="540" y="80" width="90" height="40" as="geometry" />
        </mxCell>
        <mxCell id="OUfKYgwfs4-Y2U7x0Bgi-15" value="&lt;font style=&quot;font-size: 10px;&quot;&gt;[Да]&lt;/font&gt;" style="text;html=1;strokeColor=none;fillColor=none;align=center;verticalAlign=middle;whiteSpace=wrap;rounded=0;" parent="K2C3XxSp3QnoKXtKQfDV-25" vertex="1">
          <mxGeometry x="400" y="75" width="60" height="30" as="geometry" />
        </mxCell>
        <mxCell id="OUfKYgwfs4-Y2U7x0Bgi-14" value="&lt;span style=&quot;font-size: 10px;&quot;&gt;[Заявка не была визирована по определённым причинам]&lt;/span&gt;" style="text;html=1;strokeColor=none;fillColor=none;align=center;verticalAlign=middle;whiteSpace=wrap;rounded=0;" parent="K2C3XxSp3QnoKXtKQfDV-25" vertex="1">
          <mxGeometry x="260" width="280" height="30" as="geometry" />
        </mxCell>
        <mxCell id="OUfKYgwfs4-Y2U7x0Bgi-17" value="" style="endArrow=open;endFill=1;endSize=12;html=1;rounded=0;entryX=0;entryY=0.5;entryDx=0;entryDy=0;exitX=0.5;exitY=0;exitDx=0;exitDy=0;" parent="K2C3XxSp3QnoKXtKQfDV-25" source="OUfKYgwfs4-Y2U7x0Bgi-7" target="OUfKYgwfs4-Y2U7x0Bgi-18" edge="1">
          <mxGeometry width="160" relative="1" as="geometry">
            <mxPoint x="400" y="50" as="sourcePoint" />
            <mxPoint x="450" y="30" as="targetPoint" />
            <Array as="points">
              <mxPoint x="365" y="30" />
            </Array>
          </mxGeometry>
        </mxCell>
        <mxCell id="OUfKYgwfs4-Y2U7x0Bgi-20" value="" style="html=1;points=[];perimeter=orthogonalPerimeter;outlineConnect=0;targetShapes=umlLifeline;portConstraint=eastwest;newEdgeStyle={&quot;edgeStyle&quot;:&quot;elbowEdgeStyle&quot;,&quot;elbow&quot;:&quot;vertical&quot;,&quot;curved&quot;:0,&quot;rounded&quot;:0};fillColor=#000000;" parent="K2C3XxSp3QnoKXtKQfDV-25" vertex="1">
          <mxGeometry x="470" y="75" width="10" height="50" as="geometry" />
        </mxCell>
        <mxCell id="iYgbIxrdgANhLYbudfJi-1" value="" style="endArrow=open;endFill=1;endSize=12;html=1;rounded=0;exitX=1;exitY=0.5;exitDx=0;exitDy=0;" parent="K2C3XxSp3QnoKXtKQfDV-25" source="OUfKYgwfs4-Y2U7x0Bgi-7" target="OUfKYgwfs4-Y2U7x0Bgi-20" edge="1">
          <mxGeometry width="160" relative="1" as="geometry">
            <mxPoint x="290" y="80" as="sourcePoint" />
            <mxPoint x="450" y="80" as="targetPoint" />
          </mxGeometry>
        </mxCell>
        <mxCell id="iYgbIxrdgANhLYbudfJi-2" value="" style="endArrow=open;endFill=1;endSize=12;html=1;rounded=0;entryX=0;entryY=0.5;entryDx=0;entryDy=0;" parent="K2C3XxSp3QnoKXtKQfDV-25" source="OUfKYgwfs4-Y2U7x0Bgi-20" target="OUfKYgwfs4-Y2U7x0Bgi-12" edge="1">
          <mxGeometry width="160" relative="1" as="geometry">
            <mxPoint x="230" y="70" as="sourcePoint" />
            <mxPoint x="390" y="70" as="targetPoint" />
          </mxGeometry>
        </mxCell>
        <mxCell id="OUfKYgwfs4-Y2U7x0Bgi-18" value="&lt;span style=&quot;font-size: 10px;&quot;&gt;Отправка соответствующего сообщения&lt;/span&gt;" style="rounded=1;whiteSpace=wrap;html=1;" parent="K2C3XxSp3QnoKXtKQfDV-25" vertex="1">
          <mxGeometry x="540" y="10" width="90" height="40" as="geometry" />
        </mxCell>
        <mxCell id="iYgbIxrdgANhLYbudfJi-3" value="" style="endArrow=open;endFill=1;endSize=12;html=1;rounded=0;entryX=0.5;entryY=1;entryDx=0;entryDy=0;" parent="K2C3XxSp3QnoKXtKQfDV-25" target="OUfKYgwfs4-Y2U7x0Bgi-18" edge="1">
          <mxGeometry width="160" relative="1" as="geometry">
            <mxPoint x="480" y="100" as="sourcePoint" />
            <mxPoint x="450" y="20" as="targetPoint" />
          </mxGeometry>
        </mxCell>
        <mxCell id="bowq2cbRGyURvkYB48l_-1" value="&lt;font style=&quot;font-size: 10px;&quot;&gt;Рекрутер&lt;/font&gt;" style="swimlane;horizontal=0;whiteSpace=wrap;html=1;startSize=23;" parent="1" vertex="1">
          <mxGeometry x="180" y="400" width="820" height="160" as="geometry" />
        </mxCell>
        <mxCell id="iYgbIxrdgANhLYbudfJi-8" value="&lt;font style=&quot;font-size: 10px;&quot;&gt;Получение заявки&lt;/font&gt;" style="rounded=1;whiteSpace=wrap;html=1;" parent="bowq2cbRGyURvkYB48l_-1" vertex="1">
          <mxGeometry x="90" y="50" width="90" height="40" as="geometry" />
        </mxCell>
        <mxCell id="iYgbIxrdgANhLYbudfJi-10" value="&lt;font style=&quot;font-size: 10px;&quot;&gt;Анализирование заявки&lt;/font&gt;" style="rounded=1;whiteSpace=wrap;html=1;" parent="bowq2cbRGyURvkYB48l_-1" vertex="1">
          <mxGeometry x="220" y="50" width="90" height="40" as="geometry" />
        </mxCell>
        <mxCell id="iYgbIxrdgANhLYbudfJi-13" value="&lt;font style=&quot;font-size: 10px;&quot;&gt;Закончить обработку заявки&lt;/font&gt;" style="rounded=1;whiteSpace=wrap;html=1;" parent="bowq2cbRGyURvkYB48l_-1" vertex="1">
          <mxGeometry x="350" y="50" width="90" height="40" as="geometry" />
        </mxCell>
        <mxCell id="iYgbIxrdgANhLYbudfJi-12" value="" style="endArrow=open;endFill=1;endSize=12;html=1;rounded=0;exitX=1;exitY=0.5;exitDx=0;exitDy=0;entryX=0;entryY=0.5;entryDx=0;entryDy=0;" parent="bowq2cbRGyURvkYB48l_-1" source="iYgbIxrdgANhLYbudfJi-10" target="iYgbIxrdgANhLYbudfJi-13" edge="1">
          <mxGeometry width="160" relative="1" as="geometry">
            <mxPoint x="200" y="-10" as="sourcePoint" />
            <mxPoint x="360" y="70" as="targetPoint" />
          </mxGeometry>
        </mxCell>
        <mxCell id="iYgbIxrdgANhLYbudfJi-15" value="" style="ellipse;whiteSpace=wrap;html=1;aspect=fixed;fillColor=#000000;" parent="bowq2cbRGyURvkYB48l_-1" vertex="1">
          <mxGeometry x="720" y="55" width="30" height="30" as="geometry" />
        </mxCell>
        <mxCell id="iYgbIxrdgANhLYbudfJi-16" value="" style="endArrow=open;endFill=1;endSize=12;html=1;rounded=0;exitX=1;exitY=0.5;exitDx=0;exitDy=0;entryX=0;entryY=0.5;entryDx=0;entryDy=0;" parent="bowq2cbRGyURvkYB48l_-1" source="iYgbIxrdgANhLYbudfJi-13" target="iYgbIxrdgANhLYbudfJi-15" edge="1">
          <mxGeometry width="160" relative="1" as="geometry">
            <mxPoint x="200" y="-10" as="sourcePoint" />
            <mxPoint x="360" y="-10" as="targetPoint" />
          </mxGeometry>
        </mxCell>
        <mxCell id="C09CPUO8UzI7iRbQC0P2-2" value="Требования к подбору" style="rounded=0;whiteSpace=wrap;html=1;" parent="1" vertex="1">
          <mxGeometry x="80" y="160" width="90" height="40" as="geometry" />
        </mxCell>
        <mxCell id="OUfKYgwfs4-Y2U7x0Bgi-9" value="" style="endArrow=open;endFill=1;endSize=12;html=1;rounded=0;exitX=0.5;exitY=1;exitDx=0;exitDy=0;entryX=0.5;entryY=0;entryDx=0;entryDy=0;" parent="1" source="OUfKYgwfs4-Y2U7x0Bgi-3" target="OUfKYgwfs4-Y2U7x0Bgi-6" edge="1">
          <mxGeometry width="160" relative="1" as="geometry">
            <mxPoint x="410" y="250" as="sourcePoint" />
            <mxPoint x="570" y="250" as="targetPoint" />
            <Array as="points">
              <mxPoint x="525" y="220" />
              <mxPoint x="400" y="220" />
              <mxPoint x="265" y="220" />
            </Array>
          </mxGeometry>
        </mxCell>
        <mxCell id="iYgbIxrdgANhLYbudfJi-4" value="" style="endArrow=open;endFill=1;endSize=12;html=1;rounded=0;exitX=1;exitY=0.5;exitDx=0;exitDy=0;" parent="1" source="C09CPUO8UzI7iRbQC0P2-2" edge="1">
          <mxGeometry width="160" relative="1" as="geometry">
            <mxPoint x="380" y="190" as="sourcePoint" />
            <mxPoint x="220" y="180" as="targetPoint" />
          </mxGeometry>
        </mxCell>
        <mxCell id="iYgbIxrdgANhLYbudfJi-6" value="" style="endArrow=open;endFill=1;endSize=12;html=1;rounded=0;entryX=0.5;entryY=1;entryDx=0;entryDy=0;exitX=0.5;exitY=0;exitDx=0;exitDy=0;" parent="1" source="OUfKYgwfs4-Y2U7x0Bgi-18" target="iYgbIxrdgANhLYbudfJi-5" edge="1">
          <mxGeometry width="160" relative="1" as="geometry">
            <mxPoint x="500" y="250" as="sourcePoint" />
            <mxPoint x="660" y="250" as="targetPoint" />
          </mxGeometry>
        </mxCell>
        <mxCell id="iYgbIxrdgANhLYbudfJi-9" value="" style="endArrow=open;endFill=1;endSize=12;html=1;rounded=0;exitX=0.5;exitY=1;exitDx=0;exitDy=0;entryX=0.5;entryY=0;entryDx=0;entryDy=0;" parent="1" source="OUfKYgwfs4-Y2U7x0Bgi-12" target="iYgbIxrdgANhLYbudfJi-8" edge="1">
          <mxGeometry width="160" relative="1" as="geometry">
            <mxPoint x="380" y="480" as="sourcePoint" />
            <mxPoint x="540" y="480" as="targetPoint" />
            <Array as="points">
              <mxPoint x="765" y="420" />
              <mxPoint x="315" y="420" />
            </Array>
          </mxGeometry>
        </mxCell>
        <mxCell id="iYgbIxrdgANhLYbudfJi-11" value="" style="endArrow=open;endFill=1;endSize=12;html=1;rounded=0;exitX=1;exitY=0.5;exitDx=0;exitDy=0;" parent="1" source="iYgbIxrdgANhLYbudfJi-8" edge="1">
          <mxGeometry width="160" relative="1" as="geometry">
            <mxPoint x="380" y="480" as="sourcePoint" />
            <mxPoint x="400" y="470" as="targetPoint" />
          </mxGeometry>
        </mxCell>
      </root>
    </mxGraphModel>
  </diagram>
</mxfile>
